<?xml version="1.0" encoding="UTF-8" standalone="no"?>
<!-- Created with Inkscape (http://www.inkscape.org/) -->

<svg
   width="115.79913mm"
   height="61.733746mm"
   viewBox="0 0 115.79913 61.733746"
   version="1.1"
   id="svg1"
   inkscape:version="1.3.2 (1:1.3.2+202311252150+091e20ef0f)"
   sodipodi:docname="hankel2.svg"
   xmlns:inkscape="http://www.inkscape.org/namespaces/inkscape"
   xmlns:sodipodi="http://sodipodi.sourceforge.net/DTD/sodipodi-0.dtd"
   xmlns="http://www.w3.org/2000/svg"
   xmlns:svg="http://www.w3.org/2000/svg">
  <sodipodi:namedview
     id="namedview1"
     pagecolor="#ffffff"
     bordercolor="#666666"
     borderopacity="1.0"
     inkscape:showpageshadow="2"
     inkscape:pageopacity="0.0"
     inkscape:pagecheckerboard="0"
     inkscape:deskcolor="#d1d1d1"
     inkscape:document-units="mm"
     inkscape:zoom="1.5928451"
     inkscape:cx="-25.112297"
     inkscape:cy="123.67806"
     inkscape:window-width="1850"
     inkscape:window-height="1136"
     inkscape:window-x="70"
     inkscape:window-y="27"
     inkscape:window-maximized="1"
     inkscape:current-layer="layer1" />
  <defs
     id="defs1">
    <clipPath
       clipPathUnits="userSpaceOnUse"
       id="clipPath2">
      <path
         d="M 0,0 H 320 V 175 H 0 Z"
         transform="scale(1.3333333)"
         id="path2" />
    </clipPath>
    <clipPath
       clipPathUnits="userSpaceOnUse"
       id="clipPath1">
      <path
         d="M 0,0 H 320 V 175 H 0 Z"
         id="path1" />
    </clipPath>
    <clipPath
       clipPathUnits="userSpaceOnUse"
       id="clipPath5">
      <path
         d="M 0,0 H 320 V 175 H 0 Z"
         transform="scale(1.3333333)"
         id="path5" />
    </clipPath>
    <clipPath
       clipPathUnits="userSpaceOnUse"
       id="clipPath4">
      <path
         d="M 0,0 H 320 V 175 H 0 Z"
         transform="scale(1.0026631,1)"
         id="path4" />
    </clipPath>
    <clipPath
       clipPathUnits="userSpaceOnUse"
       id="clipPath8">
      <path
         d="M 0,0 H 320 V 175 H 0 Z"
         transform="scale(1.3333333)"
         id="path8" />
    </clipPath>
    <clipPath
       clipPathUnits="userSpaceOnUse"
       id="clipPath7">
      <path
         d="M 0,0 H 320 V 175 H 0 Z"
         transform="scale(1.0026631,1)"
         id="path7" />
    </clipPath>
  </defs>
  <g
     inkscape:label="Layer 1"
     inkscape:groupmode="layer"
     id="layer1"
     transform="translate(-56.859097,-23.265769)">
    <g
       opacity="0.334487"
       id="g4"
       transform="matrix(0.26458333,0,0,0.26458333,56.896878,23.264759)">
      <g
         clip-path="url(#clipPath2)"
         id="g3">
        <path
           d="M 41.094,23.445 H 278.625 V 134.66 H 41.094 Z"
           style="fill:#4386ec;fill-opacity:1;fill-rule:evenodd;stroke:none"
           transform="scale(1.3333333)"
           clip-path="url(#clipPath1)"
           id="path3" />
      </g>
    </g>
    <g
       opacity="0.955399"
       id="g7"
       transform="matrix(0.26458333,0,0,0.26458333,56.896878,23.264759)">
      <g
         clip-path="url(#clipPath5)"
         id="g6">
        <path
           d="M 41.203,23.445 H 279.367 V 134.66 H 41.203 Z"
           style="fill:none;stroke:#000000;stroke-width:0.916273;stroke-linecap:butt;stroke-linejoin:miter;stroke-miterlimit:4;stroke-dasharray:none;stroke-opacity:1"
           transform="scale(1.329792,1.3333333)"
           clip-path="url(#clipPath4)"
           id="path6" />
      </g>
    </g>
    <g
       opacity="0.955399"
       id="g10"
       transform="matrix(0.26458333,0,0,0.26458333,56.896878,23.264759)">
      <g
         clip-path="url(#clipPath8)"
         id="g9">
        <path
           d="m 20.872,0.461 h 278.83 V 157.645 H 20.872 Z"
           style="fill:none;stroke:#000000;stroke-width:0.916273;stroke-linecap:butt;stroke-linejoin:miter;stroke-miterlimit:4;stroke-dasharray:none;stroke-opacity:1"
           transform="scale(1.329792,1.3333333)"
           clip-path="url(#clipPath7)"
           id="path9" />
      </g>
    </g>
    <path
       id="path10"
       d="m 71.393778,70.769812 v 8.16363"
       style="fill:none;stroke:#000000;stroke-width:0.317691;stroke-linecap:butt;stroke-linejoin:miter;stroke-miterlimit:4;stroke-dasharray:none;stroke-opacity:1" />
    <path
       id="path11"
       d="M 71.393778,31.535634 V 23.460551"
       style="fill:none;stroke:#000000;stroke-width:0.32585;stroke-linecap:butt;stroke-linejoin:miter;stroke-miterlimit:4;stroke-dasharray:none;stroke-opacity:1" />
    <path
       id="path12"
       d="m 71.393778,31.535634 h -7.23878"
       style="fill:none;stroke:#000000;stroke-width:0.322811;stroke-linecap:butt;stroke-linejoin:miter;stroke-miterlimit:4;stroke-dasharray:none;stroke-opacity:1" />
    <path
       id="path13"
       d="m 71.393778,70.769812 h -7.23878"
       style="fill:none;stroke:#000000;stroke-width:0.322811;stroke-linecap:butt;stroke-linejoin:miter;stroke-miterlimit:4;stroke-dasharray:none;stroke-opacity:1" />
    <path
       id="path14"
       d="m 155.18958,31.535634 h 7.15327"
       style="fill:none;stroke:#000000;stroke-width:0.322811;stroke-linecap:butt;stroke-linejoin:miter;stroke-miterlimit:4;stroke-dasharray:none;stroke-opacity:1" />
    <path
       id="path15"
       d="M 155.18958,31.535634 V 23.413631"
       style="fill:none;stroke:#000000;stroke-width:0.322811;stroke-linecap:butt;stroke-linejoin:miter;stroke-miterlimit:4;stroke-dasharray:none;stroke-opacity:1" />
    <path
       id="path16"
       d="m 155.18958,70.769812 v 8.0518"
       style="fill:none;stroke:#000000;stroke-width:0.327537;stroke-linecap:butt;stroke-linejoin:miter;stroke-miterlimit:4;stroke-dasharray:none;stroke-opacity:1" />
    <path
       id="path17"
       d="m 155.18958,70.769812 h 7.01852"
       style="fill:none;stroke:#000000;stroke-width:0.322811;stroke-linecap:butt;stroke-linejoin:miter;stroke-miterlimit:4;stroke-dasharray:none;stroke-opacity:1" />
    <path
       id="path18"
       d="m 117.91345,45.671551 1.52563,-0.724711 -0.69178,1.542268 c -0.0688,-0.422169 -0.40652,-0.751104 -0.83385,-0.817557 z"
       style="fill:#000000;fill-opacity:1;fill-rule:evenodd;stroke:#000000;stroke-width:0.0907908;stroke-linecap:butt;stroke-linejoin:round;stroke-miterlimit:4;stroke-dasharray:none;stroke-opacity:1" />
    <path
       id="path19"
       d="M 71.590808,84.307659 H 154.8782"
       style="fill:none;stroke:#000000;stroke-width:0.26564;stroke-linecap:butt;stroke-linejoin:miter;stroke-miterlimit:4;stroke-dasharray:none;stroke-opacity:1" />
    <path
       id="path20"
       d="m 72.978468,84.949714 -1.7388,-0.639233 1.7388,-0.642056 c -0.2769,0.378884 -0.27549,0.897114 0,1.281289 z"
       style="fill:#000000;fill-opacity:1;fill-rule:evenodd;stroke:#000000;stroke-width:0.099615;stroke-linecap:butt;stroke-linejoin:round;stroke-miterlimit:4;stroke-dasharray:none;stroke-opacity:1" />
    <path
       id="path21"
       d="m 153.49054,83.662781 1.73774,0.642055 -1.73774,0.640998 c 0.2769,-0.377825 0.27549,-0.895703 0,-1.283053 z"
       style="fill:#000000;fill-opacity:1;fill-rule:evenodd;stroke:#000000;stroke-width:0.099615;stroke-linecap:butt;stroke-linejoin:round;stroke-miterlimit:4;stroke-dasharray:none;stroke-opacity:1" />
    <path
       id="path22"
       d="m 106.01702,43.792191 h 14.54931 v 14.720358 h -14.54931 z"
       style="fill:#fcfdff;fill-opacity:1;fill-rule:nonzero;stroke:#000000;stroke-width:0.220516;stroke-linecap:butt;stroke-linejoin:miter;stroke-miterlimit:4;stroke-dasharray:none;stroke-opacity:1" />
    <path
       id="path23"
       d="M 104.12236,58.568641 V 43.882855"
       style="fill:none;stroke:#000000;stroke-width:0.26564;stroke-linecap:butt;stroke-linejoin:miter;stroke-miterlimit:4;stroke-dasharray:none;stroke-opacity:1" />
    <path
       id="path24"
       d="m 104.12236,59.336285 -0.66287,-1.150761 h 1.32574 z"
       style="fill:#000000;fill-opacity:1;fill-rule:evenodd;stroke:#000000;stroke-width:0.177093;stroke-linecap:butt;stroke-linejoin:miter;stroke-miterlimit:4;stroke-dasharray:none;stroke-opacity:1" />
    <path
       id="path25"
       d="m 104.12236,43.115564 0.66287,1.150408 h -1.32574 z"
       style="fill:#000000;fill-opacity:1;fill-rule:evenodd;stroke:#000000;stroke-width:0.177093;stroke-linecap:butt;stroke-linejoin:miter;stroke-miterlimit:4;stroke-dasharray:none;stroke-opacity:1" />
    <path
       id="path26"
       d="M 61.893088,69.468292 V 30.322662"
       style="fill:none;stroke:#000000;stroke-width:0.265639;stroke-linecap:butt;stroke-linejoin:miter;stroke-miterlimit:4;stroke-dasharray:none;stroke-opacity:1" />
    <path
       id="path27"
       d="m 62.534148,68.075174 -0.63965,1.74484 -0.63789,-1.74484 c 0.37612,0.279754 0.89297,0.276931 1.27754,0 z"
       style="fill:#000000;fill-opacity:1;fill-rule:evenodd;stroke:#000000;stroke-width:0.0996151;stroke-linecap:butt;stroke-linejoin:round;stroke-miterlimit:4;stroke-dasharray:none;stroke-opacity:1" />
    <path
       id="path28"
       d="m 61.250978,31.71437 0.63965,-1.744486 0.63929,1.744486 c -0.37893,-0.278341 -0.89578,-0.27693 -1.27894,0 z"
       style="fill:#000000;fill-opacity:1;fill-rule:evenodd;stroke:#000000;stroke-width:0.0996151;stroke-linecap:butt;stroke-linejoin:round;stroke-miterlimit:4;stroke-dasharray:none;stroke-opacity:1" />
    <path
       id="path29"
       d="M 164.05071,78.674676 V 70.570311"
       style="fill:none;stroke:#000000;stroke-width:0.265639;stroke-linecap:butt;stroke-linejoin:miter;stroke-miterlimit:4;stroke-dasharray:none;stroke-opacity:1" />
    <path
       id="path30"
       d="m 164.69141,77.282616 -0.63788,1.744837 -0.6393,-1.744837 c 0.37612,0.278341 0.89403,0.276928 1.27718,0 z"
       style="fill:#000000;fill-opacity:1;fill-rule:evenodd;stroke:#000000;stroke-width:0.0996151;stroke-linecap:butt;stroke-linejoin:round;stroke-miterlimit:4;stroke-dasharray:none;stroke-opacity:1" />
    <path
       id="path31"
       d="m 163.4086,71.963432 0.6393,-1.744488 0.63929,1.744488 c -0.37752,-0.278341 -0.89262,-0.276931 -1.27859,0 z"
       style="fill:#000000;fill-opacity:1;fill-rule:evenodd;stroke:#000000;stroke-width:0.0996151;stroke-linecap:butt;stroke-linejoin:round;stroke-miterlimit:4;stroke-dasharray:none;stroke-opacity:1" />
    <path
       id="path32"
       d="m 113.01291,70.732469 0.026,-4.276021"
       style="fill:none;stroke:#000000;stroke-width:0.204659;stroke-linecap:butt;stroke-linejoin:miter;stroke-miterlimit:4;stroke-dasharray:none;stroke-opacity:1" />
    <path
       id="path33"
       d="m 112.53869,67.525555 0.50148,-1.340578 0.48368,1.346171 c -0.28926,-0.214934 -0.68755,-0.217482 -0.98516,-0.0056 z"
       style="fill:#000000;fill-opacity:1;fill-rule:evenodd;stroke:#000000;stroke-width:0.0767472;stroke-linecap:butt;stroke-linejoin:round;stroke-miterlimit:4;stroke-dasharray:none;stroke-opacity:1" />
    <path
       id="path34"
       d="m 113.01291,70.754339 h 4.19465"
       style="fill:none;stroke:#000000;stroke-width:0.185948;stroke-linecap:butt;stroke-linejoin:miter;stroke-miterlimit:4;stroke-dasharray:none;stroke-opacity:1" />
    <path
       id="path35"
       d="m 116.23718,70.303844 1.21701,0.449085 -1.21701,0.448027 c 0.19457,-0.265994 0.19316,-0.626885 0,-0.897112 z"
       style="fill:#000000;fill-opacity:1;fill-rule:evenodd;stroke:#000000;stroke-width:0.0697304;stroke-linecap:butt;stroke-linejoin:round;stroke-miterlimit:4;stroke-dasharray:none;stroke-opacity:1" />
    <g
       inkscape:label=""
       transform="translate(101.77323,49.916151)"
       id="g37">
      <g
         id="surface1"
         transform="matrix(0.352778,0,0,0.352778,-0.896011,-0.704541)">
        <g
           style="fill:#000000;fill-opacity:1"
           id="g36">
          <g
             id="use2"
             transform="translate(1.993,10.294)">
            <path
               style="stroke:none"
               d="m 3.03125,-8 c 0.015625,-0.046875 0.046875,-0.109375 0.046875,-0.171875 0,-0.125 -0.125,-0.125 -0.15625,-0.125 0,0 -0.4375,0.03125 -0.65625,0.0625 -0.203125,0.015625 -0.375,0.03125 -0.59375,0.046875 -0.28125,0.03125 -0.375,0.03125 -0.375,0.25 0,0.125 0.125,0.125 0.25,0.125 0.609375,0 0.609375,0.109375 0.609375,0.21875 0,0.046875 0,0.078125 -0.0625,0.296875 L 0.609375,-1.375 c -0.03125,0.125 -0.0625,0.234375 -0.0625,0.421875 0,0.59375 0.4375,1.078125 1.0625,1.078125 0.390625,0 0.65625,-0.265625 0.84375,-0.640625 0.203125,-0.390625 0.375,-1.140625 0.375,-1.1875 0,-0.0625 -0.0625,-0.109375 -0.125,-0.109375 -0.109375,0 -0.125,0.0625 -0.171875,0.234375 C 2.3125,-0.75 2.109375,-0.125 1.625,-0.125 c -0.359375,0 -0.359375,-0.375 -0.359375,-0.546875 0,-0.046875 0,-0.296875 0.078125,-0.625 z m 0,0"
               id="path36" />
          </g>
        </g>
      </g>
    </g>
    <g
       inkscape:label=""
       transform="translate(113.17782,80.995056)"
       id="g41">
      <g
         id="g40"
         transform="matrix(0.352778,0,0,0.352778,-0.896011,-0.707231)">
        <g
           style="fill:#000000;fill-opacity:1"
           id="g39">
          <g
             id="g38"
             transform="translate(1.993,10.161)">
            <path
               style="stroke:none"
               d="M 4.390625,-7.25 C 4.5,-7.703125 4.53125,-7.8125 5.578125,-7.8125 c 0.328125,0 0.40625,0 0.40625,-0.234375 0,-0.109375 -0.125,-0.109375 -0.171875,-0.109375 -0.25,0 -0.515625,0.015625 -0.75,0.015625 H 3.453125 c -0.21875,0 -0.484375,-0.015625 -0.71875,-0.015625 -0.09375,0 -0.21875,0 -0.21875,0.21875 0,0.125 0.109375,0.125 0.28125,0.125 0.734375,0 0.734375,0.09375 0.734375,0.21875 0,0.03125 0,0.09375 -0.046875,0.28125 l -1.625,6.421875 C 1.75,-0.46875 1.734375,-0.34375 0.890625,-0.34375 c -0.21875,0 -0.34375,0 -0.34375,0.21875 C 0.546875,0 0.625,0 0.859375,0 H 6.21875 C 6.484375,0 6.484375,-0.015625 6.578125,-0.234375 L 7.5,-2.765625 c 0.015625,-0.0625 0.046875,-0.140625 0.046875,-0.171875 0,-0.078125 -0.0625,-0.125 -0.125,-0.125 -0.015625,0 -0.078125,0 -0.09375,0.046875 C 7.296875,-3 7.296875,-2.96875 7.203125,-2.75 c -0.375,1.046875 -0.921875,2.40625 -2.9375,2.40625 H 3.125 c -0.171875,0 -0.203125,0 -0.265625,-0.015625 C 2.71875,-0.375 2.71875,-0.390625 2.71875,-0.484375 c 0,-0.09375 0.015625,-0.15625 0.046875,-0.265625 z m 0,0"
               id="path37" />
          </g>
        </g>
      </g>
    </g>
    <g
       inkscape:label=""
       transform="translate(56.859096,49.582669)"
       id="g45">
      <g
         id="g44"
         transform="matrix(0.352778,0,0,0.352778,-0.896011,-0.707231)">
        <g
           style="fill:#000000;fill-opacity:1"
           id="g43">
          <g
             id="g42"
             transform="translate(1.993,10.161)">
            <path
               style="stroke:none"
               d="M 8.9375,-7.296875 C 9.046875,-7.703125 9.078125,-7.8125 9.921875,-7.8125 c 0.21875,0 0.328125,0 0.328125,-0.21875 0,-0.125 -0.109375,-0.125 -0.171875,-0.125 -0.21875,0 -0.46875,0.015625 -0.6875,0.015625 H 7.96875 C 7.75,-8.140625 7.5,-8.15625 7.265625,-8.15625 c -0.078125,0 -0.21875,0 -0.21875,0.21875 0,0.125 0.078125,0.125 0.296875,0.125 0.71875,0 0.71875,0.09375 0.71875,0.21875 0,0.03125 0,0.09375 -0.046875,0.28125 l -0.71875,2.890625 H 3.6875 l 0.71875,-2.875 C 4.5,-7.703125 4.53125,-7.8125 5.375,-7.8125 c 0.21875,0 0.34375,0 0.34375,-0.21875 0,-0.125 -0.109375,-0.125 -0.1875,-0.125 -0.21875,0 -0.46875,0.015625 -0.6875,0.015625 H 3.4375 c -0.234375,0 -0.484375,-0.015625 -0.71875,-0.015625 -0.078125,0 -0.21875,0 -0.21875,0.21875 0,0.125 0.078125,0.125 0.3125,0.125 0.71875,0 0.71875,0.09375 0.71875,0.21875 0,0.03125 0,0.09375 -0.046875,0.28125 l -1.625,6.421875 C 1.75,-0.46875 1.734375,-0.34375 0.90625,-0.34375 c -0.265625,0 -0.359375,0 -0.359375,0.21875 C 0.546875,0 0.6875,0 0.71875,0 0.9375,0 1.1875,-0.03125 1.40625,-0.03125 H 2.828125 C 3.046875,-0.03125 3.296875,0 3.53125,0 3.625,0 3.75,0 3.75,-0.234375 3.75,-0.34375 3.640625,-0.34375 3.46875,-0.34375 c -0.734375,0 -0.734375,-0.09375 -0.734375,-0.21875 0,-0.015625 0,-0.09375 0.03125,-0.1875 l 0.8125,-3.328125 h 3.625 C 7,-3.28125 6.390625,-0.78125 6.375,-0.71875 c -0.140625,0.359375 -0.328125,0.359375 -1.03125,0.375 -0.140625,0 -0.25,0 -0.25,0.21875 C 5.09375,0 5.21875,0 5.265625,0 5.46875,0 5.71875,-0.03125 5.953125,-0.03125 h 1.40625 C 7.59375,-0.03125 7.84375,0 8.0625,0 c 0.09375,0 0.234375,0 0.234375,-0.234375 0,-0.109375 -0.109375,-0.109375 -0.28125,-0.109375 -0.734375,0 -0.734375,-0.09375 -0.734375,-0.21875 0,-0.015625 0,-0.09375 0.015625,-0.1875 z m 0,0"
               id="path41" />
          </g>
        </g>
      </g>
    </g>
    <g
       inkscape:label=""
       transform="translate(116.19713,68.116361)"
       id="g49">
      <g
         id="g48"
         transform="matrix(0.352778,0,0,0.352778,-0.818841,-0.660885)">
        <g
           style="fill:#000000;fill-opacity:1"
           id="g47">
          <g
             id="g46"
             transform="translate(1.993,7.1389999)">
            <path
               style="stroke:none"
               d="m 5.671875,-4.875 c -0.390625,0.0625 -0.53125,0.359375 -0.53125,0.578125 0,0.296875 0.21875,0.390625 0.390625,0.390625 0.359375,0 0.609375,-0.3125 0.609375,-0.640625 0,-0.5 -0.578125,-0.71875 -1.078125,-0.71875 -0.71875,0 -1.125,0.71875 -1.234375,0.9375 -0.28125,-0.890625 -1.015625,-0.9375 -1.234375,-0.9375 -1.21875,0 -1.859375,1.5625 -1.859375,1.828125 0,0.046875 0.046875,0.109375 0.125,0.109375 0.09375,0 0.125,-0.078125 0.140625,-0.125 0.40625,-1.328125 1.21875,-1.578125 1.5625,-1.578125 0.53125,0 0.640625,0.5 0.640625,0.78125 0,0.265625 -0.078125,0.546875 -0.21875,1.125 L 2.578125,-1.5 c -0.171875,0.71875 -0.515625,1.375 -1.15625,1.375 -0.0625,0 -0.359375,0 -0.609375,-0.15625 C 1.25,-0.359375 1.34375,-0.71875 1.34375,-0.859375 1.34375,-1.09375 1.15625,-1.25 0.9375,-1.25 c -0.296875,0 -0.609375,0.265625 -0.609375,0.640625 0,0.5 0.5625,0.734375 1.078125,0.734375 0.578125,0 0.984375,-0.453125 1.234375,-0.953125 C 2.828125,-0.125 3.4375,0.125 3.875,0.125 5.09375,0.125 5.734375,-1.453125 5.734375,-1.703125 5.734375,-1.765625 5.6875,-1.8125 5.625,-1.8125 5.515625,-1.8125 5.5,-1.75 5.46875,-1.65625 5.140625,-0.609375 4.453125,-0.125 3.90625,-0.125 3.484375,-0.125 3.265625,-0.4375 3.265625,-0.921875 3.265625,-1.1875 3.3125,-1.375 3.5,-2.15625 L 3.921875,-3.796875 C 4.09375,-4.5 4.5,-5.03125 5.0625,-5.03125 c 0.015625,0 0.359375,0 0.609375,0.15625 z m 0,0"
               id="path45" />
          </g>
        </g>
      </g>
    </g>
    <g
       inkscape:label=""
       transform="translate(110.16566,65.45185)"
       id="g53">
      <g
         id="g52"
         transform="matrix(0.352778,0,0,0.352778,-0.818841,-0.661238)">
        <g
           style="fill:#000000;fill-opacity:1"
           id="g51">
          <g
             id="g50"
             transform="translate(1.993,7.1399999)">
            <path
               style="stroke:none"
               d="m 3.140625,1.34375 c -0.3125,0.453125 -0.78125,0.859375 -1.375,0.859375 C 1.625,2.203125 1.046875,2.171875 0.875,1.625 c 0.03125,0.015625 0.09375,0.015625 0.109375,0.015625 0.359375,0 0.609375,-0.3125 0.609375,-0.59375 C 1.59375,0.78125 1.359375,0.6875 1.1875,0.6875 c -0.203125,0 -0.609375,0.140625 -0.609375,0.71875 0,0.609375 0.515625,1.03125 1.1875,1.03125 C 2.96875,2.4375 4.171875,1.34375 4.5,0.015625 L 5.671875,-4.65625 C 5.6875,-4.703125 5.71875,-4.78125 5.71875,-4.859375 5.71875,-5.03125 5.5625,-5.15625 5.390625,-5.15625 5.28125,-5.15625 5.03125,-5.109375 4.9375,-4.75 L 4.046875,-1.234375 C 4,-1.015625 4,-0.984375 3.890625,-0.859375 3.65625,-0.53125 3.265625,-0.125 2.6875,-0.125 c -0.671875,0 -0.734375,-0.65625 -0.734375,-0.96875 0,-0.6875 0.328125,-1.609375 0.65625,-2.46875 0.125,-0.34375 0.203125,-0.515625 0.203125,-0.75 0,-0.5 -0.359375,-0.953125 -0.953125,-0.953125 -1.09375,0 -1.53125,1.734375 -1.53125,1.828125 0,0.046875 0.046875,0.109375 0.125,0.109375 0.109375,0 0.125,-0.046875 0.171875,-0.21875 0.28125,-1 0.734375,-1.484375 1.203125,-1.484375 0.109375,0 0.3125,0 0.3125,0.390625 0,0.3125 -0.125,0.65625 -0.3125,1.109375 C 1.25,-1.953125 1.25,-1.5625 1.25,-1.28125 1.25,-0.140625 2.0625,0.125 2.65625,0.125 3,0.125 3.4375,0.015625 3.84375,-0.4375 l 0.015625,0.015625 C 3.6875,0.28125 3.5625,0.75 3.140625,1.34375 Z m 0,0"
               id="path49" />
          </g>
        </g>
      </g>
    </g>
    <g
       inkscape:label=""
       transform="translate(164.17447,72.629183)"
       id="g58">
      <g
         id="g57"
         transform="matrix(0.352778,0,0,0.352778,-0.873963,-0.704541)">
        <g
           style="fill:#000000;fill-opacity:1"
           id="g54">
          <g
             id="use6"
             transform="translate(1.993,10.294)">
            <path
               style="stroke:none"
               d="m 6.015625,-8 c 0.015625,-0.046875 0.03125,-0.109375 0.03125,-0.171875 0,-0.125 -0.125,-0.125 -0.140625,-0.125 -0.015625,0 -0.59375,0.046875 -0.65625,0.0625 -0.203125,0.015625 -0.390625,0.03125 -0.59375,0.046875 -0.3125,0.03125 -0.390625,0.03125 -0.390625,0.25 0,0.125 0.09375,0.125 0.265625,0.125 0.578125,0 0.59375,0.109375 0.59375,0.21875 0,0.078125 -0.015625,0.171875 -0.03125,0.203125 l -0.734375,2.90625 c -0.125,-0.3125 -0.453125,-0.78125 -1.078125,-0.78125 -1.34375,0 -2.796875,1.734375 -2.796875,3.515625 0,1.171875 0.6875,1.875 1.5,1.875 0.65625,0 1.21875,-0.515625 1.546875,-0.90625 0.125,0.703125 0.6875,0.90625 1.046875,0.90625 0.359375,0 0.640625,-0.21875 0.859375,-0.65625 0.1875,-0.40625 0.359375,-1.125 0.359375,-1.171875 0,-0.0625 -0.046875,-0.109375 -0.125,-0.109375 C 5.5625,-1.8125 5.5625,-1.75 5.515625,-1.578125 5.328125,-0.875 5.109375,-0.125 4.609375,-0.125 4.265625,-0.125 4.25,-0.4375 4.25,-0.671875 c 0,-0.046875 0,-0.296875 0.078125,-0.625 z M 3.59375,-1.421875 C 3.53125,-1.21875 3.53125,-1.1875 3.375,-0.96875 3.109375,-0.640625 2.578125,-0.125 2.015625,-0.125 1.53125,-0.125 1.25,-0.5625 1.25,-1.265625 c 0,-0.65625 0.375,-2 0.609375,-2.5 0.40625,-0.84375 0.96875,-1.265625 1.421875,-1.265625 0.796875,0 0.953125,0.984375 0.953125,1.078125 0,0.015625 -0.03125,0.15625 -0.046875,0.1875 z m 0,0"
               id="path53" />
          </g>
        </g>
        <g
           style="fill:#000000;fill-opacity:1"
           id="g56">
          <g
             id="use7"
             transform="translate(8.0749998,12.087)">
            <path
               style="stroke:none"
               d="m 1.90625,-2.484375 h 1.453125 c 0.96875,0 1.921875,-0.625 1.921875,-1.46875 0,-0.78125 -0.84375,-1.484375 -1.984375,-1.484375 h -2.9375 v 0.265625 h 0.1875 c 0.609375,0 0.625,0.078125 0.625,0.375 v 4.15625 c 0,0.296875 -0.015625,0.375 -0.625,0.375 h -0.1875 V 0 c 0.6875,-0.03125 0.703125,-0.03125 1.171875,-0.03125 0.484375,0 0.5,0 1.171875,0.03125 V -0.265625 H 2.53125 c -0.609375,0 -0.625,-0.078125 -0.625,-0.375 z M 1.875,-2.71875 v -2.140625 c 0,-0.265625 0.015625,-0.3125 0.390625,-0.3125 H 3.09375 c 1.359375,0 1.359375,0.859375 1.359375,1.21875 0,0.34375 0,1.234375 -1.359375,1.234375 z m 0,0"
               id="path54" />
          </g>
          <g
             id="use8"
             transform="translate(13.834194,12.087)">
            <path
               style="stroke:none"
               d="M 2.03125,-5.265625 C 1.953125,-5.421875 1.953125,-5.4375 1.734375,-5.4375 h -1.34375 v 0.265625 H 0.5625 c 0.609375,0 0.625,0.078125 0.625,0.375 v 3.9375 c 0,0.21875 0,0.59375 -0.796875,0.59375 V 0 C 0.75,-0.03125 1.125,-0.03125 1.328125,-0.03125 c 0.203125,0 0.578125,0 0.9375,0.03125 v -0.265625 c -0.796875,0 -0.796875,-0.375 -0.796875,-0.59375 V -5.09375 L 3.484375,-0.1875 C 3.53125,-0.09375 3.5625,0 3.671875,0 3.78125,0 3.8125,-0.09375 3.859375,-0.1875 l 2.03125,-4.96875 v 4.515625 c 0,0.296875 -0.015625,0.375 -0.625,0.375 H 5.09375 V 0 c 0.625,-0.03125 0.640625,-0.03125 1.125,-0.03125 0.484375,0 0.5,0 1.140625,0.03125 V -0.265625 H 7.1875 c -0.625,0 -0.640625,-0.078125 -0.640625,-0.375 v -4.15625 c 0,-0.296875 0.015625,-0.375 0.640625,-0.375 H 7.359375 V -5.4375 h -1.34375 c -0.21875,0 -0.234375,0.015625 -0.296875,0.15625 L 3.875,-0.75 Z m 0,0"
               id="path55" />
          </g>
          <g
             id="use9"
             transform="translate(21.588305,12.087)">
            <path
               style="stroke:none"
               d="m 4.9375,-2.078125 h -0.25 c -0.09375,0.828125 -0.21875,1.8125 -1.671875,1.8125 h -0.75 c -0.359375,0 -0.375,-0.046875 -0.375,-0.328125 v -4.203125 c 0,-0.265625 0,-0.375 0.75,-0.375 h 0.25 V -5.4375 c -0.359375,0.015625 -0.9375,0.015625 -1.3125,0.015625 -0.53125,0 -0.546875,0 -1.234375,-0.015625 v 0.265625 h 0.1875 c 0.609375,0 0.625,0.078125 0.625,0.375 v 4.15625 c 0,0.296875 -0.015625,0.375 -0.625,0.375 H 0.34375 V 0 h 4.359375 z m 0,0"
               id="path56" />
          </g>
        </g>
      </g>
    </g>
  </g>
</svg>
