<?xml version="1.0" encoding="UTF-8" standalone="no"?>
<!-- Created with Inkscape (http://www.inkscape.org/) -->

<svg
   version="1.1"
   id="svg1"
   width="614.40002"
   height="460.79999"
   viewBox="0 0 614.40002 460.79999"
   xmlns="http://www.w3.org/2000/svg"
   xmlns:svg="http://www.w3.org/2000/svg">
  <defs
     id="defs1">
    <clipPath
       clipPathUnits="userSpaceOnUse"
       id="clipPath2">
      <path
         d="M 47.689076,39.766609 H 450 V 334.8 H 47.689076 Z"
         id="path2" />
    </clipPath>
    <clipPath
       clipPathUnits="userSpaceOnUse"
       id="clipPath10">
      <path
         d="M 47.689076,39.766609 H 450 V 334.8 H 47.689076 Z"
         id="path10" />
    </clipPath>
    <clipPath
       clipPathUnits="userSpaceOnUse"
       id="clipPath18">
      <path
         d="M 47.689076,39.766609 H 450 V 334.8 H 47.689076 Z"
         id="path18" />
    </clipPath>
    <clipPath
       clipPathUnits="userSpaceOnUse"
       id="clipPath26">
      <path
         d="M 47.689076,39.766609 H 450 V 334.8 H 47.689076 Z"
         id="path26" />
    </clipPath>
    <clipPath
       clipPathUnits="userSpaceOnUse"
       id="clipPath30">
      <path
         d="M 47.689076,39.766609 H 450 V 334.8 H 47.689076 Z"
         id="path30" />
    </clipPath>
    <clipPath
       clipPathUnits="userSpaceOnUse"
       id="clipPath35">
      <path
         d="M 47.689076,39.766609 H 450 V 334.8 H 47.689076 Z"
         id="path35" />
    </clipPath>
    <clipPath
       clipPathUnits="userSpaceOnUse"
       id="clipPath38">
      <path
         d="M 47.689076,39.766609 H 450 V 334.8 H 47.689076 Z"
         id="path38" />
    </clipPath>
    <clipPath
       clipPathUnits="userSpaceOnUse"
       id="clipPath41">
      <path
         d="M 47.689076,39.766609 H 450 V 334.8 H 47.689076 Z"
         id="path41" />
    </clipPath>
    <clipPath
       clipPathUnits="userSpaceOnUse"
       id="clipPath44">
      <path
         d="M 47.689076,39.766609 H 450 V 334.8 H 47.689076 Z"
         id="path44" />
    </clipPath>
    <clipPath
       clipPathUnits="userSpaceOnUse"
       id="clipPath47">
      <path
         d="M 47.689076,39.766609 H 450 V 334.8 H 47.689076 Z"
         id="path47" />
    </clipPath>
    <clipPath
       clipPathUnits="userSpaceOnUse"
       id="clipPath50">
      <path
         d="M 47.689076,39.766609 H 450 V 334.8 H 47.689076 Z"
         id="path50" />
    </clipPath>
    <clipPath
       clipPathUnits="userSpaceOnUse"
       id="clipPath53">
      <path
         d="M 47.689076,39.766609 H 450 V 334.8 H 47.689076 Z"
         id="path53" />
    </clipPath>
    <clipPath
       clipPathUnits="userSpaceOnUse"
       id="clipPath56">
      <path
         d="M 47.689076,39.766609 H 450 V 334.8 H 47.689076 Z"
         id="path56" />
    </clipPath>
    <clipPath
       clipPathUnits="userSpaceOnUse"
       id="clipPath62">
      <path
         d="M 47.689076,39.766609 H 450 V 334.8 H 47.689076 Z"
         id="path62" />
    </clipPath>
    <clipPath
       clipPathUnits="userSpaceOnUse"
       id="clipPath63">
      <path
         d="M -8,-8 H 8 V 8 H -8 Z"
         id="path63" />
    </clipPath>
    <clipPath
       clipPathUnits="userSpaceOnUse"
       id="clipPath65">
      <path
         d="M 47.689076,39.766609 H 450 V 334.8 H 47.689076 Z"
         transform="matrix(1.3333333,0,0,-1.3333333,0,460.8)"
         id="path65" />
    </clipPath>
    <clipPath
       clipPathUnits="userSpaceOnUse"
       id="clipPath66">
      <path
         d="M -8,-8 H 8 V 8 H -8 Z"
         transform="translate(-1.8788001e-6)"
         id="path66" />
    </clipPath>
    <clipPath
       clipPathUnits="userSpaceOnUse"
       id="clipPath68">
      <path
         d="M 47.689076,39.766609 H 450 V 334.8 H 47.689076 Z"
         transform="matrix(1.3333333,0,0,-1.3333333,0,460.8)"
         id="path68" />
    </clipPath>
    <clipPath
       clipPathUnits="userSpaceOnUse"
       id="clipPath69">
      <path
         d="M -8,-8 H 8 V 8 H -8 Z"
         id="path69" />
    </clipPath>
    <clipPath
       clipPathUnits="userSpaceOnUse"
       id="clipPath71">
      <path
         d="M 47.689076,39.766609 H 450 V 334.8 H 47.689076 Z"
         transform="matrix(1.3333333,0,0,-1.3333333,0,460.8)"
         id="path71" />
    </clipPath>
    <clipPath
       clipPathUnits="userSpaceOnUse"
       id="clipPath73">
      <path
         d="M 47.689076,39.766609 H 450 V 334.8 H 47.689076 Z"
         id="path73" />
    </clipPath>
  </defs>
  <g
     id="g1">
    <path
       id="path1"
       d="M 189.974,39.766609 V 334.8"
       style="fill:none;stroke:#b0b0b0;stroke-width:0.7;stroke-linecap:butt;stroke-linejoin:round;stroke-miterlimit:10;stroke-dasharray:2.59, 1.12;stroke-dashoffset:0;stroke-opacity:1"
       transform="matrix(1.3333333,0,0,-1.3333333,0,460.8)"
       clip-path="url(#clipPath2)" />
    <path
       id="path3"
       d="m 189.974,39.766609 v -2"
       style="fill:#000000;fill-opacity:1;fill-rule:nonzero;stroke:#000000;stroke-width:0.6;stroke-linecap:butt;stroke-linejoin:round;stroke-miterlimit:10;stroke-dasharray:none;stroke-opacity:1"
       transform="matrix(1.3333333,0,0,-1.3333333,0,460.8)" />
    <g
       id="g3"
       aria-label="2×10&#10;−1"
       transform="matrix(1.3333333,0,0,1.3333333,228.41974,424.31473)">
      <path
         id="path4"
         d="M 1.2642962,-0.76046016 2.3189837,-1.7917102 c 1.5585937,-1.3710937 2.15625,-1.9101562 2.15625,-2.90625 0,-1.1367187 -0.9023438,-1.9335937 -2.1210938,-1.9335937 -1.125,0 -1.85156249,0.9140625 -1.85156249,1.8046875 0,0.5507812 0.4921875,0.5507812 0.52734379,0.5507812 0.1640625,0 0.515625,-0.1171875 0.515625,-0.5273437 0,-0.2578125 -0.1875,-0.515625 -0.5273438,-0.515625 -0.0820312,0 -0.10546874,0 -0.12890624,0.011719 0.22265624,-0.6445312 0.76171874,-1.0195312 1.33593754,-1.0195312 0.9140625,0 1.3359375,0.8085937 1.3359375,1.6289062 0,0.796875 -0.4921875,1.5820313 -1.0429688,2.203125 L 0.60804616,-0.36202266 C 0.50257741,-0.25655391 0.50257741,-0.23311641 0.50257741,0.00125859 H 4.1939837 l 0.28125,-1.73437499 H 4.2174212 c -0.046875,0.3046875 -0.1171875,0.73828124 -0.2109375,0.89062499 -0.070313,0.0820313 -0.7265625,0.0820313 -0.9492188,0.0820313 z m 0,0"
         style="fill:#000000;fill-opacity:1;fill-rule:nonzero;stroke:none" />
      <path
         id="path5"
         d="M 11.07289,-2.7643664 9.0807024,-4.7448352 c -0.1289062,-0.1289062 -0.140625,-0.140625 -0.2226562,-0.140625 -0.1054688,0 -0.1992188,0.082031 -0.1992188,0.1992188 0,0.070312 0.023437,0.082031 0.1289063,0.1992187 l 1.9921873,1.9921875 -1.9921873,2.00390629 c -0.1054688,0.1171875 -0.1289063,0.12890625 -0.1289063,0.19921875 0,0.1171875 0.09375,0.19921875 0.1992188,0.19921875 0.082031,0 0.09375,-0.01171875 0.2226562,-0.140625 l 1.9804686,-1.98046879 2.0625,2.06250004 c 0.01172,0.0117188 0.08203,0.05859375 0.152344,0.05859375 0.117187,0 0.199219,-0.08203125 0.199219,-0.19921875 0,-0.0117188 0,-0.0585938 -0.03516,-0.10546875 -0.01172,-0.0234375 -1.59375,-1.58203129 -2.097656,-2.09765629 l 1.828125,-1.8164062 c 0.04687,-0.058594 0.199219,-0.1875 0.246094,-0.2460938 0.01172,-0.023437 0.05859,-0.058594 0.05859,-0.1289062 0,-0.1171875 -0.08203,-0.1992188 -0.199219,-0.1992188 -0.08203,0 -0.128906,0.035156 -0.234375,0.140625 z m 0,0"
         style="fill:#000000;fill-opacity:1;fill-rule:nonzero;stroke:none" />
      <path
         id="path6"
         d="m 20.087538,-6.3737414 c 0,-0.234375 0,-0.2578125 -0.234375,-0.2578125 -0.609375,0.6328125 -1.488281,0.6328125 -1.804687,0.6328125 v 0.3164062 c 0.199219,0 0.785156,0 1.300781,-0.2578125 v 5.15625004 c 0,0.3515625 -0.03516,0.48046875 -0.925781,0.48046875 H 18.10707 v 0.3046875 c 0.351562,-0.03515625 1.207031,-0.03515625 1.605468,-0.03515625 0.398438,0 1.265625,0 1.617188,0.03515625 v -0.3046875 H 21.01332 c -0.902344,0 -0.925782,-0.1171875 -0.925782,-0.48046875 z m 6.632813,3.1875 c 0,-0.796875 -0.04687,-1.59375 -0.398438,-2.3320313 -0.457031,-0.9609375 -1.277343,-1.1132812 -1.6875,-1.1132812 -0.597656,0 -1.335937,0.2578125 -1.734375,1.1835937 -0.328125,0.6914063 -0.375,1.4648438 -0.375,2.2617188 0,0.75 0.04687,1.640625 0.445313,2.40234374 0.433594,0.80859375 1.160156,1.0078125 1.652344,1.0078125 0.539062,0 1.289062,-0.2109375 1.734375,-1.16015625 0.316406,-0.69140629 0.363281,-1.46484379 0.363281,-2.24999999 z m -2.097656,3.18749999 c -0.386719,0 -0.984375,-0.24609375 -1.160157,-1.20703129 -0.105468,-0.5976562 -0.105468,-1.5117187 -0.105468,-2.0976562 0,-0.6445313 0,-1.3007813 0.08203,-1.8398438 0.1875,-1.1835937 0.925781,-1.265625 1.183594,-1.265625 0.328125,0 0.984375,0.1757813 1.171875,1.1601563 0.09375,0.5625 0.09375,1.3125 0.09375,1.9453125 0,0.75 0,1.4179687 -0.105469,2.0625 -0.152344,0.93749999 -0.714844,1.24218749 -1.160156,1.24218749 z m 0,0"
         style="fill:#000000;fill-opacity:1;fill-rule:nonzero;stroke:none" />
      <path
         id="path7"
         d="m 32.313124,-5.1842883 c 0.105469,0 0.269532,0 0.269532,-0.1757812 0,-0.1757813 -0.152344,-0.1757813 -0.269532,-0.1757813 h -4.160156 c -0.105469,0 -0.28125,0 -0.28125,0.1757813 0,0.1757812 0.164063,0.1757812 0.28125,0.1757812 z m 0,0"
         style="fill:#000000;fill-opacity:1;fill-rule:nonzero;stroke:none" />
      <path
         id="path8"
         d="m 35.679335,-8.0436633 c 0,-0.1875 -0.01172,-0.1992187 -0.210937,-0.1992187 -0.445313,0.4335937 -1.078125,0.4453125 -1.359375,0.4453125 v 0.2460937 c 0.164062,0 0.621093,0 1.007812,-0.1875 v 3.5507813 c 0,0.234375 0,0.328125 -0.691406,0.328125 h -0.269531 v 0.2460937 c 0.128906,-0.011719 0.984375,-0.023437 1.242187,-0.023437 0.210938,0 1.089844,0.011719 1.242188,0.023437 V -3.8600695 H 36.38246 c -0.703125,0 -0.703125,-0.09375 -0.703125,-0.328125 z m 0,0"
         style="fill:#000000;fill-opacity:1;fill-rule:nonzero;stroke:none" />
    </g>
    <path
       id="path9"
       d="M 296.94527,39.766609 V 334.8"
       style="fill:none;stroke:#b0b0b0;stroke-width:0.7;stroke-linecap:butt;stroke-linejoin:round;stroke-miterlimit:10;stroke-dasharray:2.59, 1.12;stroke-dashoffset:0;stroke-opacity:1"
       transform="matrix(1.3333333,0,0,-1.3333333,0,460.8)"
       clip-path="url(#clipPath10)" />
    <path
       id="path11"
       d="m 296.94527,39.766609 v -2"
       style="fill:#000000;fill-opacity:1;fill-rule:nonzero;stroke:#000000;stroke-width:0.6;stroke-linecap:butt;stroke-linejoin:round;stroke-miterlimit:10;stroke-dasharray:none;stroke-opacity:1"
       transform="matrix(1.3333333,0,0,-1.3333333,0,460.8)" />
    <g
       id="g11"
       aria-label="3×10&#10;−1"
       transform="matrix(1.3333333,0,0,1.3333333,371.04811,424.31473)">
      <path
         id="path12"
         d="m 2.8936075,-3.5026477 c 0.8085938,-0.2695312 1.3945313,-0.9726562 1.3945313,-1.7578125 0,-0.8203125 -0.8789063,-1.3710937 -1.8398438,-1.3710937 -1.0078125,0 -1.75781246,0.5976562 -1.75781246,1.3476562 0,0.3398438 0.2109375,0.5273438 0.50390626,0.5273438 0.3046875,0 0.5039062,-0.2226563 0.5039062,-0.515625 0,-0.4921875 -0.46875,-0.4921875 -0.609375,-0.4921875 0.3046875,-0.4921875 0.9609375,-0.6210938 1.3242188,-0.6210938 0.4101562,0 0.9492187,0.2226563 0.9492187,1.1132813 0,0.1289062 -0.011719,0.703125 -0.2695312,1.1367187 -0.3046875,0.4804688 -0.6445313,0.515625 -0.890625,0.515625 -0.082031,0.011719 -0.3164063,0.035156 -0.3867188,0.035156 -0.082031,0.011719 -0.1523437,0.023437 -0.1523437,0.1171875 0,0.1171875 0.070312,0.1171875 0.234375,0.1171875 h 0.4453125 c 0.8085937,0 1.1835937,0.6679687 1.1835937,1.6523437 0,1.34765629 -0.6914062,1.64062504 -1.125,1.64062504 -0.4335937,0 -1.171875,-0.17578125 -1.52343746,-0.76171875 0.35156246,0.0585938 0.65624996,-0.1640625 0.65624996,-0.53906249 0,-0.3632813 -0.2695312,-0.5625 -0.56249996,-0.5625 -0.234375,0 -0.55078125,0.140625 -0.55078125,0.5742187 0,0.91406254 0.92578121,1.57031254 2.00390621,1.57031254 1.21875,0 2.1210938,-0.9140625 2.1210938,-1.92187504 0,-0.8203125 -0.6210938,-1.59375 -1.6523438,-1.8046872 z m 0,0"
         style="fill:#000000;fill-opacity:1;fill-rule:nonzero;stroke:none" />
      <path
         id="path13"
         d="M 11.073295,-2.7643664 9.0811075,-4.7448352 c -0.1289062,-0.1289062 -0.140625,-0.140625 -0.2226562,-0.140625 -0.1054688,0 -0.1992188,0.082031 -0.1992188,0.1992188 0,0.070312 0.023437,0.082031 0.1289063,0.1992187 l 1.9921872,1.9921875 -1.9921872,2.00390629 c -0.1054688,0.1171875 -0.1289063,0.12890625 -0.1289063,0.19921875 0,0.1171875 0.09375,0.19921875 0.1992188,0.19921875 0.082031,0 0.09375,-0.01171875 0.2226562,-0.140625 l 1.9804685,-1.98046879 2.0625,2.06250004 c 0.01172,0.0117188 0.08203,0.05859375 0.152344,0.05859375 0.117188,0 0.199219,-0.08203125 0.199219,-0.19921875 0,-0.0117188 0,-0.0585938 -0.03516,-0.10546875 -0.01172,-0.0234375 -1.59375,-1.58203129 -2.097657,-2.09765629 l 1.828125,-1.8164062 c 0.04687,-0.058594 0.199219,-0.1875 0.246094,-0.2460938 0.01172,-0.023437 0.05859,-0.058594 0.05859,-0.1289062 0,-0.1171875 -0.08203,-0.1992188 -0.199219,-0.1992188 -0.08203,0 -0.128906,0.035156 -0.234375,0.140625 z m 0,0"
         style="fill:#000000;fill-opacity:1;fill-rule:nonzero;stroke:none" />
      <path
         id="path14"
         d="m 20.087943,-6.3737414 c 0,-0.234375 0,-0.2578125 -0.234375,-0.2578125 -0.609375,0.6328125 -1.488281,0.6328125 -1.804687,0.6328125 v 0.3164062 c 0.199219,0 0.785156,0 1.300781,-0.2578125 v 5.15625004 c 0,0.3515625 -0.03516,0.48046875 -0.925781,0.48046875 h -0.316406 v 0.3046875 c 0.351562,-0.03515625 1.207031,-0.03515625 1.605468,-0.03515625 0.398438,0 1.265625,0 1.617188,0.03515625 v -0.3046875 h -0.316406 c -0.902344,0 -0.925782,-0.1171875 -0.925782,-0.48046875 z m 6.632813,3.1875 c 0,-0.796875 -0.04687,-1.59375 -0.398438,-2.3320313 -0.457031,-0.9609375 -1.277343,-1.1132812 -1.6875,-1.1132812 -0.597656,0 -1.335937,0.2578125 -1.734375,1.1835937 -0.328125,0.6914063 -0.375,1.4648438 -0.375,2.2617188 0,0.75 0.04687,1.640625 0.445313,2.40234374 0.433594,0.80859375 1.160156,1.0078125 1.652344,1.0078125 0.539062,0 1.289062,-0.2109375 1.734375,-1.16015625 0.316406,-0.69140629 0.363281,-1.46484379 0.363281,-2.24999999 z M 24.6231,0.00125859 c -0.386719,0 -0.984375,-0.24609375 -1.160157,-1.20703129 -0.105468,-0.5976562 -0.105468,-1.5117187 -0.105468,-2.0976562 0,-0.6445313 0,-1.3007813 0.08203,-1.8398438 0.1875,-1.1835937 0.925781,-1.265625 1.183594,-1.265625 0.328125,0 0.984375,0.1757813 1.171875,1.1601563 0.09375,0.5625 0.09375,1.3125 0.09375,1.9453125 0,0.75 0,1.4179687 -0.105469,2.0625 -0.152344,0.93749999 -0.714844,1.24218749 -1.160156,1.24218749 z m 0,0"
         style="fill:#000000;fill-opacity:1;fill-rule:nonzero;stroke:none" />
      <path
         id="path15"
         d="m 32.3106,-5.1842883 c 0.105468,0 0.269531,0 0.269531,-0.1757812 0,-0.1757813 -0.152344,-0.1757813 -0.269531,-0.1757813 h -4.160157 c -0.105468,0 -0.28125,0 -0.28125,0.1757813 0,0.1757812 0.164063,0.1757812 0.28125,0.1757812 z m 0,0"
         style="fill:#000000;fill-opacity:1;fill-rule:nonzero;stroke:none" />
      <path
         id="path16"
         d="m 35.67974,-8.0436633 c 0,-0.1875 -0.01172,-0.1992187 -0.210937,-0.1992187 -0.445313,0.4335937 -1.078125,0.4453125 -1.359375,0.4453125 v 0.2460937 c 0.164062,0 0.621094,0 1.007812,-0.1875 v 3.5507813 c 0,0.234375 0,0.328125 -0.691406,0.328125 h -0.269531 v 0.2460937 c 0.128906,-0.011719 0.984375,-0.023437 1.242187,-0.023437 0.210938,0 1.089844,0.011719 1.242188,0.023437 v -0.2460937 h -0.257813 c -0.703125,0 -0.703125,-0.09375 -0.703125,-0.328125 z m 0,0"
         style="fill:#000000;fill-opacity:1;fill-rule:nonzero;stroke:none" />
    </g>
    <path
       id="path17"
       d="M 372.8426,39.766609 V 334.8"
       style="fill:none;stroke:#b0b0b0;stroke-width:0.7;stroke-linecap:butt;stroke-linejoin:round;stroke-miterlimit:10;stroke-dasharray:2.59, 1.12;stroke-dashoffset:0;stroke-opacity:1"
       transform="matrix(1.3333333,0,0,-1.3333333,0,460.8)"
       clip-path="url(#clipPath18)" />
    <path
       id="path19"
       d="m 372.8426,39.766609 v -2"
       style="fill:#000000;fill-opacity:1;fill-rule:nonzero;stroke:#000000;stroke-width:0.6;stroke-linecap:butt;stroke-linejoin:round;stroke-miterlimit:10;stroke-dasharray:none;stroke-opacity:1"
       transform="matrix(1.3333333,0,0,-1.3333333,0,460.8)" />
    <g
       id="g19"
       aria-label="4×10&#10;−1"
       transform="matrix(1.3333333,0,0,1.3333333,472.24454,424.31473)">
      <path
         id="path20"
         d="m 2.9308507,-1.6393664 v 0.86718749 c 0,0.3515625 -0.023437,0.46875 -0.7617188,0.46875 H 1.9581944 v 0.3046875 c 0.4101563,-0.03515625 0.9375,-0.03515625 1.3476563,-0.03515625 0.421875,0 0.9492187,0 1.359375,0.03515625 v -0.3046875 H 4.4542882 c -0.7382813,0 -0.7617188,-0.1171875 -0.7617188,-0.46875 V -1.6393664 H 4.6886632 V -1.9557727 H 3.6925694 v -4.5234375 c 0,-0.1992187 0,-0.2578125 -0.1523437,-0.2578125 -0.09375,0 -0.1171875,0 -0.1992188,0.1171875 l -3.0585937,4.6640625 v 0.3164063 z m 0.058594,-0.3164063 H 0.5636632 l 2.4257812,-3.7148437 z m 0,0"
         style="fill:#000000;fill-opacity:1;fill-rule:nonzero;stroke:none" />
      <path
         id="path21"
         d="M 11.075382,-2.7643664 9.0831944,-4.7448352 c -0.1289062,-0.1289062 -0.140625,-0.140625 -0.2226562,-0.140625 -0.1054688,0 -0.1992188,0.082031 -0.1992188,0.1992188 0,0.070312 0.023437,0.082031 0.1289063,0.1992187 l 1.9921873,1.9921875 -1.9921873,2.00390629 c -0.1054688,0.1171875 -0.1289063,0.12890625 -0.1289063,0.19921875 0,0.1171875 0.09375,0.19921875 0.1992188,0.19921875 0.082031,0 0.09375,-0.01171875 0.2226562,-0.140625 l 1.9804686,-1.98046879 2.0625,2.06250004 c 0.01172,0.0117188 0.08203,0.05859375 0.152344,0.05859375 0.117187,0 0.199219,-0.08203125 0.199219,-0.19921875 0,-0.0117188 0,-0.0585938 -0.03516,-0.10546875 -0.01172,-0.0234375 -1.59375,-1.58203129 -2.097656,-2.09765629 l 1.828125,-1.8164062 c 0.04687,-0.058594 0.199219,-0.1875 0.246094,-0.2460938 0.01172,-0.023437 0.05859,-0.058594 0.05859,-0.1289062 0,-0.1171875 -0.08203,-0.1992188 -0.199219,-0.1992188 -0.08203,0 -0.128906,0.035156 -0.234375,0.140625 z m 0,0"
         style="fill:#000000;fill-opacity:1;fill-rule:nonzero;stroke:none" />
      <path
         id="path22"
         d="m 20.087101,-6.3737414 c 0,-0.234375 0,-0.2578125 -0.234375,-0.2578125 -0.609375,0.6328125 -1.488282,0.6328125 -1.804688,0.6328125 v 0.3164062 c 0.199219,0 0.785156,0 1.300781,-0.2578125 v 5.15625004 c 0,0.3515625 -0.03516,0.48046875 -0.925781,0.48046875 h -0.316406 v 0.3046875 c 0.351562,-0.03515625 1.207031,-0.03515625 1.605469,-0.03515625 0.398437,0 1.265625,0 1.617187,0.03515625 v -0.3046875 h -0.316406 c -0.902344,0 -0.925781,-0.1171875 -0.925781,-0.48046875 z m 6.632812,3.1875 c 0,-0.796875 -0.04687,-1.59375 -0.398437,-2.3320313 -0.457032,-0.9609375 -1.277344,-1.1132812 -1.6875,-1.1132812 -0.597657,0 -1.335938,0.2578125 -1.734375,1.1835937 -0.328125,0.6914063 -0.375,1.4648438 -0.375,2.2617188 0,0.75 0.04687,1.640625 0.445312,2.40234374 0.433594,0.80859375 1.160156,1.0078125 1.652344,1.0078125 0.539062,0 1.289062,-0.2109375 1.734375,-1.16015625 0.316406,-0.69140629 0.363281,-1.46484379 0.363281,-2.24999999 z m -2.097656,3.18749999 c -0.386719,0 -0.984375,-0.24609375 -1.160156,-1.20703129 -0.105469,-0.5976562 -0.105469,-1.5117187 -0.105469,-2.0976562 0,-0.6445313 0,-1.3007813 0.08203,-1.8398438 0.1875,-1.1835937 0.925781,-1.265625 1.183594,-1.265625 0.328125,0 0.984375,0.1757813 1.171875,1.1601563 0.09375,0.5625 0.09375,1.3125 0.09375,1.9453125 0,0.75 0,1.4179687 -0.105469,2.0625 -0.152344,0.93749999 -0.714844,1.24218749 -1.160156,1.24218749 z m 0,0"
         style="fill:#000000;fill-opacity:1;fill-rule:nonzero;stroke:none" />
      <path
         id="path23"
         d="m 32.312687,-5.1842883 c 0.105468,0 0.269531,0 0.269531,-0.1757812 0,-0.1757813 -0.152344,-0.1757813 -0.269531,-0.1757813 H 28.15253 c -0.105468,0 -0.28125,0 -0.28125,0.1757813 0,0.1757812 0.164063,0.1757812 0.28125,0.1757812 z m 0,0"
         style="fill:#000000;fill-opacity:1;fill-rule:nonzero;stroke:none" />
      <path
         id="path24"
         d="m 35.678898,-8.0436633 c 0,-0.1875 -0.01172,-0.1992187 -0.210938,-0.1992187 -0.445312,0.4335937 -1.078125,0.4453125 -1.359375,0.4453125 v 0.2460937 c 0.164063,0 0.621094,0 1.007813,-0.1875 v 3.5507813 c 0,0.234375 0,0.328125 -0.691407,0.328125 H 34.15546 v 0.2460937 c 0.128906,-0.011719 0.984375,-0.023437 1.242188,-0.023437 0.210937,0 1.089843,0.011719 1.242187,0.023437 v -0.2460937 h -0.257812 c -0.703125,0 -0.703125,-0.09375 -0.703125,-0.328125 z m 0,0"
         style="fill:#000000;fill-opacity:1;fill-rule:nonzero;stroke:none" />
    </g>
    <path
       id="path25"
       d="M 431.71314,39.766609 V 334.8"
       style="fill:none;stroke:#b0b0b0;stroke-width:0.7;stroke-linecap:butt;stroke-linejoin:round;stroke-miterlimit:10;stroke-dasharray:2.59, 1.12;stroke-dashoffset:0;stroke-opacity:1"
       transform="matrix(1.3333333,0,0,-1.3333333,0,460.8)"
       clip-path="url(#clipPath26)" />
    <path
       id="path27"
       d="m 431.71314,39.766609 v -2"
       style="fill:#000000;fill-opacity:1;fill-rule:nonzero;stroke:#000000;stroke-width:0.6;stroke-linecap:butt;stroke-linejoin:round;stroke-miterlimit:10;stroke-dasharray:none;stroke-opacity:1"
       transform="matrix(1.3333333,0,0,-1.3333333,0,460.8)" />
    <path
       id="path28"
       d="m 3.3636065,-7.9920058 c 0.011719,-0.046875 0.035156,-0.1289063 0.035156,-0.1875 0,-0.1171875 -0.1289063,-0.1171875 -0.1523438,-0.1171875 -0.011719,0 -0.5976562,0.046875 -0.65625,0.058594 -0.1992187,0.011719 -0.375,0.035156 -0.5976562,0.046875 -0.2929688,0.023437 -0.375,0.035156 -0.375,0.2578125 0,0.1171875 0.09375,0.1171875 0.2578125,0.1171875 0.5859375,0 0.5976562,0.1054688 0.5976562,0.2226563 0,0.070312 -0.023437,0.1757812 -0.035156,0.2109375 l -1.73437504,6.91406249 c -0.046875,0.1875 -0.046875,0.2109375 -0.046875,0.28125 0,0.2578125 0.19921875,0.3046875 0.328125,0.3046875 0.19921874,0 0.35156254,-0.15234375 0.41015624,-0.28125 L 1.933919,-2.3318496 c 0.058594,-0.2578125 0.1289063,-0.515625 0.1992188,-0.7734375 0.1289062,-0.5039062 0.1289062,-0.515625 0.3515625,-0.8671875 0.234375,-0.3398437 0.7617187,-1.0546875 1.6875,-1.0546875 0.4804687,0 0.6445312,0.3515625 0.6445312,0.8320313 0,0.6679687 -0.46875,1.96875 -0.7265625,2.6835937 -0.1054687,0.2929688 -0.1640625,0.4453125 -0.1640625,0.66796879 0,0.52734375 0.3632813,0.9609375 0.9375,0.9609375 1.1132813,0 1.5351563,-1.75781249 1.5351563,-1.82812499 0,-0.058594 -0.046875,-0.1054688 -0.1171875,-0.1054688 -0.1171875,0 -0.1289063,0.035156 -0.1875,0.234375 -0.2695313,0.96093754 -0.7148438,1.46484379 -1.1953125,1.46484379 -0.1171875,0 -0.3046875,-0.0117187 -0.3046875,-0.3984375 0,-0.3046875 0.140625,-0.69140629 0.1875,-0.82031249 0.2109375,-0.5742188 0.75,-1.9921875 0.75,-2.6835938 0,-0.7148437 -0.4101563,-1.2539062 -1.3242188,-1.2539062 -0.6796875,0 -1.2773437,0.328125 -1.7695312,0.9492187 z m 0,0"
       style="fill:#000000;fill-opacity:1;fill-rule:nonzero;stroke:none"
       aria-label="h"
       transform="matrix(1.3333333,0,0,1.3333333,327.30035,443.30054)" />
    <path
       id="path29"
       d="M 47.689076,294.79469 H 450"
       style="fill:none;stroke:#b0b0b0;stroke-width:0.7;stroke-linecap:butt;stroke-linejoin:round;stroke-miterlimit:10;stroke-dasharray:2.59, 1.12;stroke-dashoffset:0;stroke-opacity:1"
       transform="matrix(1.3333333,0,0,-1.3333333,0,460.8)"
       clip-path="url(#clipPath30)" />
    <path
       id="path31"
       d="m 47.689076,294.79469 h -3.5"
       style="fill:#000000;fill-opacity:1;fill-rule:nonzero;stroke:#000000;stroke-width:0.8;stroke-linecap:butt;stroke-linejoin:round;stroke-miterlimit:10;stroke-dasharray:none;stroke-opacity:1"
       transform="matrix(1.3333333,0,0,-1.3333333,0,460.8)" />
    <g
       id="g31"
       aria-label="10&#10;1"
       transform="matrix(1.3333333,0,0,1.3333333,35.673557,72.352747)">
      <path
         id="path32"
         d="m 2.9284256,-6.3758885 c 0,-0.234375 0,-0.2578125 -0.234375,-0.2578125 -0.609375,0.6328125 -1.4882812,0.6328125 -1.80468747,0.6328125 v 0.3164062 c 0.19921877,0 0.78515627,0 1.30078127,-0.2578125 v 5.15625002 c 0,0.3515625 -0.035156,0.48046875 -0.9257813,0.48046875 H 0.94795688 V -8.885289e-4 C 1.2995194,-0.03604478 2.1549881,-0.03604478 2.5534256,-0.03604478 c 0.3984375,0 1.265625,0 1.6171875,0.0351562511 V -0.30557603 H 3.8542069 c -0.9023438,0 -0.9257813,-0.1171875 -0.9257813,-0.48046875 z m 6.6357422,3.1875 c 0,-0.796875 -0.046875,-1.59375 -0.3984375,-2.3320313 -0.4570312,-0.9609375 -1.2773437,-1.1132812 -1.6875,-1.1132812 -0.5976562,0 -1.3359375,0.2578125 -1.734375,1.1835937 -0.328125,0.6914063 -0.375,1.4648438 -0.375,2.2617188 0,0.75 0.046875,1.640625 0.4453125,2.40234372 0.4335938,0.80859375 1.1601563,1.0078125 1.6523438,1.0078125 0.5390625,0 1.2890625,-0.2109375 1.734375,-1.16015625 C 9.5172928,-1.6297948 9.5641678,-2.4032323 9.5641678,-3.1883885 Z M 7.4665116,-8.885289e-4 c -0.3867188,0 -0.984375,-0.2460937511 -1.1601563,-1.2070312711 C 6.2008866,-1.805576 6.2008866,-2.7196385 6.2008866,-3.305576 c 0,-0.6445313 0,-1.3007813 0.082031,-1.8398438 0.1875,-1.1835937 0.9257813,-1.265625 1.1835938,-1.265625 0.328125,0 0.984375,0.1757813 1.171875,1.1601563 0.09375,0.5625 0.09375,1.3125 0.09375,1.9453125 0,0.75 0,1.4179687 -0.1054688,2.0625 -0.1523437,0.93749997 -0.7148437,1.2421874711 -1.160156,1.2421874711 z m 0,0"
         style="fill:#000000;fill-opacity:1;fill-rule:nonzero;stroke:none" />
      <path
         id="path33"
         d="m 12.294637,-8.0458104 c 0,-0.1875 -0.01172,-0.1992188 -0.210938,-0.1992188 -0.445312,0.4335938 -1.078125,0.4453125 -1.359375,0.4453125 v 0.2460938 c 0.164063,0 0.621094,0 1.007813,-0.1875 v 3.5507812 c 0,0.234375 0,0.328125 -0.691407,0.328125 h -0.269531 v 0.2460938 c 0.128906,-0.011719 0.984375,-0.023437 1.242188,-0.023437 0.210937,0 1.089843,0.011719 1.242187,0.023437 v -0.2460938 h -0.257812 c -0.703125,0 -0.703125,-0.09375 -0.703125,-0.328125 z m 0,0"
         style="fill:#000000;fill-opacity:1;fill-rule:nonzero;stroke:none" />
    </g>
    <path
       id="path34"
       d="M 47.689076,107.96864 H 450"
       style="fill:none;stroke:#b0b0b0;stroke-width:0.7;stroke-linecap:butt;stroke-linejoin:round;stroke-miterlimit:10;stroke-dasharray:2.59, 1.12;stroke-dashoffset:0;stroke-opacity:1"
       transform="matrix(1.3333333,0,0,-1.3333333,0,460.8)"
       clip-path="url(#clipPath35)" />
    <path
       id="path36"
       d="m 47.689076,107.96864 h -2"
       style="fill:#000000;fill-opacity:1;fill-rule:nonzero;stroke:#000000;stroke-width:0.6;stroke-linecap:butt;stroke-linejoin:round;stroke-miterlimit:10;stroke-dasharray:none;stroke-opacity:1"
       transform="matrix(1.3333333,0,0,-1.3333333,0,460.8)" />
    <path
       id="path37"
       d="M 47.689076,155.03566 H 450"
       style="fill:none;stroke:#b0b0b0;stroke-width:0.7;stroke-linecap:butt;stroke-linejoin:round;stroke-miterlimit:10;stroke-dasharray:2.59, 1.12;stroke-dashoffset:0;stroke-opacity:1"
       transform="matrix(1.3333333,0,0,-1.3333333,0,460.8)"
       clip-path="url(#clipPath38)" />
    <path
       id="path39"
       d="m 47.689076,155.03566 h -2"
       style="fill:#000000;fill-opacity:1;fill-rule:nonzero;stroke:#000000;stroke-width:0.6;stroke-linecap:butt;stroke-linejoin:round;stroke-miterlimit:10;stroke-dasharray:none;stroke-opacity:1"
       transform="matrix(1.3333333,0,0,-1.3333333,0,460.8)" />
    <path
       id="path40"
       d="M 47.689076,188.43024 H 450"
       style="fill:none;stroke:#b0b0b0;stroke-width:0.7;stroke-linecap:butt;stroke-linejoin:round;stroke-miterlimit:10;stroke-dasharray:2.59, 1.12;stroke-dashoffset:0;stroke-opacity:1"
       transform="matrix(1.3333333,0,0,-1.3333333,0,460.8)"
       clip-path="url(#clipPath41)" />
    <path
       id="path42"
       d="m 47.689076,188.43024 h -2"
       style="fill:#000000;fill-opacity:1;fill-rule:nonzero;stroke:#000000;stroke-width:0.6;stroke-linecap:butt;stroke-linejoin:round;stroke-miterlimit:10;stroke-dasharray:none;stroke-opacity:1"
       transform="matrix(1.3333333,0,0,-1.3333333,0,460.8)" />
    <path
       id="path43"
       d="M 47.689076,214.33309 H 450"
       style="fill:none;stroke:#b0b0b0;stroke-width:0.7;stroke-linecap:butt;stroke-linejoin:round;stroke-miterlimit:10;stroke-dasharray:2.59, 1.12;stroke-dashoffset:0;stroke-opacity:1"
       transform="matrix(1.3333333,0,0,-1.3333333,0,460.8)"
       clip-path="url(#clipPath44)" />
    <path
       id="path45"
       d="m 47.689076,214.33309 h -2"
       style="fill:#000000;fill-opacity:1;fill-rule:nonzero;stroke:#000000;stroke-width:0.6;stroke-linecap:butt;stroke-linejoin:round;stroke-miterlimit:10;stroke-dasharray:none;stroke-opacity:1"
       transform="matrix(1.3333333,0,0,-1.3333333,0,460.8)" />
    <path
       id="path46"
       d="M 47.689076,235.49726 H 450"
       style="fill:none;stroke:#b0b0b0;stroke-width:0.7;stroke-linecap:butt;stroke-linejoin:round;stroke-miterlimit:10;stroke-dasharray:2.59, 1.12;stroke-dashoffset:0;stroke-opacity:1"
       transform="matrix(1.3333333,0,0,-1.3333333,0,460.8)"
       clip-path="url(#clipPath47)" />
    <path
       id="path48"
       d="m 47.689076,235.49726 h -2"
       style="fill:#000000;fill-opacity:1;fill-rule:nonzero;stroke:#000000;stroke-width:0.6;stroke-linecap:butt;stroke-linejoin:round;stroke-miterlimit:10;stroke-dasharray:none;stroke-opacity:1"
       transform="matrix(1.3333333,0,0,-1.3333333,0,460.8)" />
    <path
       id="path49"
       d="M 47.689076,253.39131 H 450"
       style="fill:none;stroke:#b0b0b0;stroke-width:0.7;stroke-linecap:butt;stroke-linejoin:round;stroke-miterlimit:10;stroke-dasharray:2.59, 1.12;stroke-dashoffset:0;stroke-opacity:1"
       transform="matrix(1.3333333,0,0,-1.3333333,0,460.8)"
       clip-path="url(#clipPath50)" />
    <path
       id="path51"
       d="m 47.689076,253.39131 h -2"
       style="fill:#000000;fill-opacity:1;fill-rule:nonzero;stroke:#000000;stroke-width:0.6;stroke-linecap:butt;stroke-linejoin:round;stroke-miterlimit:10;stroke-dasharray:none;stroke-opacity:1"
       transform="matrix(1.3333333,0,0,-1.3333333,0,460.8)" />
    <path
       id="path52"
       d="M 47.689076,268.89184 H 450"
       style="fill:none;stroke:#b0b0b0;stroke-width:0.7;stroke-linecap:butt;stroke-linejoin:round;stroke-miterlimit:10;stroke-dasharray:2.59, 1.12;stroke-dashoffset:0;stroke-opacity:1"
       transform="matrix(1.3333333,0,0,-1.3333333,0,460.8)"
       clip-path="url(#clipPath53)" />
    <path
       id="path54"
       d="m 47.689076,268.89184 h -2"
       style="fill:#000000;fill-opacity:1;fill-rule:nonzero;stroke:#000000;stroke-width:0.6;stroke-linecap:butt;stroke-linejoin:round;stroke-miterlimit:10;stroke-dasharray:none;stroke-opacity:1"
       transform="matrix(1.3333333,0,0,-1.3333333,0,460.8)" />
    <path
       id="path55"
       d="M 47.689076,282.56428 H 450"
       style="fill:none;stroke:#b0b0b0;stroke-width:0.7;stroke-linecap:butt;stroke-linejoin:round;stroke-miterlimit:10;stroke-dasharray:2.59, 1.12;stroke-dashoffset:0;stroke-opacity:1"
       transform="matrix(1.3333333,0,0,-1.3333333,0,460.8)"
       clip-path="url(#clipPath56)" />
    <path
       id="path57"
       d="m 47.689076,282.56428 h -2"
       style="fill:#000000;fill-opacity:1;fill-rule:nonzero;stroke:#000000;stroke-width:0.6;stroke-linecap:butt;stroke-linejoin:round;stroke-miterlimit:10;stroke-dasharray:none;stroke-opacity:1"
       transform="matrix(1.3333333,0,0,-1.3333333,0,460.8)" />
    <path
       id="path58"
       d="m 2.1454406,-2.7771183 c 0.3164062,0 1.125,-0.023437 1.6992187,-0.234375 0.9140625,-0.3515625 0.9960938,-1.0429687 0.9960938,-1.2539062 0,-0.5273438 -0.4570313,-1.0078125 -1.2421875,-1.0078125 -1.2539063,0 -3.05859379,1.1367187 -3.05859379,3.2695312 0,1.25390627 0.71484379,2.12109377 1.80468749,2.12109377 1.6289063,0 2.6484375,-1.26562497 2.6484375,-1.41796877 0,-0.070312 -0.070312,-0.1289062 -0.1171875,-0.1289062 -0.035156,0 -0.046875,0.011719 -0.1523437,0.1171875 -0.7617188,1.00781247 -1.8984375,1.19531247 -2.3554688,1.19531247 -0.6796875,0 -1.0429687,-0.5390625 -1.0429687,-1.42968747 0,-0.1640625 0,-0.4570313 0.1875,-1.2304688 z m -0.5742188,-0.234375 c 0.5039063,-1.8398437 1.640625,-2.015625 2.0273438,-2.015625 0.5273437,0 0.890625,0.3046875 0.890625,0.7617188 0,1.2539062 -1.921875,1.2539062 -2.4257813,1.2539062 z m 0,0"
       style="fill:#000000;fill-opacity:1;fill-rule:nonzero;stroke:none"
       aria-label="e"
       transform="matrix(0,-1.3333333,1.3333333,0,26.355168,229.13012)" />
    <path
       id="path59"
       d="m 2.3332817,-5.2969438 c 0,-0.011719 0.023437,-0.1171875 0.023437,-0.1171875 0,-0.046875 -0.023437,-0.1171875 -0.1289063,-0.1171875 -0.023437,0 -0.2695312,0.023437 -0.4570312,0.035156 l -0.4453125,0.035156 c -0.1757813,0.023437 -0.2578125,0.023437 -0.2578125,0.1640625 0,0.1171875 0.1171875,0.1171875 0.2109375,0.1171875 0.375,0 0.375,0.046875 0.375,0.1171875 0,0.023437 0,0.046875 -0.035156,0.1875 l -1.13671871,4.53515622 c -0.0234375,0.1171875 -0.0234375,0.1640625 -0.0234375,0.17578125 0,0.12890625 0.10546875,0.24609375 0.2578125,0.24609375 0.12890625,0 0.24609375,-0.0820312537 0.30468751,-0.1875 0.023437,-0.046875 0.09375,-0.3046875 0.1289062,-0.45703125 l 0.1875,-0.71484377 c 0.023437,-0.1171875 0.09375,-0.421875 0.1171875,-0.5390625 0.1289063,-0.4570312 0.1289063,-0.4804687 0.3046875,-0.7382812 0.2695313,-0.3867188 0.6445313,-0.7382813 1.171875,-0.7382813 0.2929688,0 0.4570313,0.1640625 0.4570313,0.5390625 0,0.4453125 -0.3398438,1.3476563 -0.4804688,1.7460938 -0.1054687,0.25781247 -0.1054687,0.30468747 -0.1054687,0.41015622 0,0.45703125 0.375,0.6796875 0.7148437,0.6796875 0.7851563,0 1.1015625,-1.11328122 1.1015625,-1.21875002 0,-0.082031 -0.058594,-0.1054687 -0.1171875,-0.1054687 -0.09375,0 -0.1054687,0.058594 -0.1289062,0.1289062 -0.1992188,0.65625002 -0.5273438,0.97265627 -0.8320313,0.97265627 -0.1289062,0 -0.1875,-0.0820313 -0.1875,-0.26953125 0,-0.17578125 0.058594,-0.3515625 0.140625,-0.55078125 0.1171875,-0.30468747 0.46875,-1.21874997 0.46875,-1.66406247 0,-0.5976563 -0.4101562,-0.890625 -0.984375,-0.890625 -0.4453125,0 -0.8671875,0.1875 -1.2421875,0.609375 z m 0,0"
       style="fill:#000000;fill-opacity:1;fill-rule:nonzero;stroke:none"
       aria-label="h"
       transform="matrix(0,-1.3333333,1.3333333,0,28.746186,221.8962)" />
    <path
       id="path60"
       d="M 2.9874673,2.9885067 V 2.5431942 H 1.827311 v -11.0625 H 2.9874673 V -8.9646183 H 1.3819985 V 2.9885067 Z M 12.33317,-1.7341495 c 0,-1.3710938 -0.679687,-2.4140625 -1.523437,-2.4140625 -0.8789063,0 -1.7226563,0.9960937 -1.7226563,2.4023437 0,1.46484377 0.8554687,2.41406252 1.7226563,2.41406252 0.855469,0 1.523437,-1.078125 1.523437,-2.40234372 z m -1.511718,2.16796872 c -0.175782,0 -1.0429691,-0.0820313 -1.0429691,-2.16796872 0,-2.0976563 0.8554691,-2.1796875 1.0429691,-2.1796875 0.65625,0 1.253906,0.9375 1.253906,2.1679687 0,1.26562502 -0.609375,2.17968752 -1.253906,2.17968752 z m 0.433593,-8.96484372 c 0.08203,-0.1054688 0.105469,-0.1523438 0.105469,-0.2109375 0,-0.1523438 -0.128906,-0.2226563 -0.222656,-0.2226563 -0.117188,0 -0.152344,0.058594 -0.246094,0.1757813 -0.761719,1.03125 -1.7812498,1.125 -2.2382811,1.125 -0.2226562,0 -1.2539062,0 -2.2265625,-0.9257813 -0.2460937,-0.2578125 -0.515625,-0.375 -0.8203125,-0.375 -0.8671875,0 -1.7226562,0.9960938 -1.7226562,2.4023438 0,1.453125 0.8671875,2.4140625 1.7226562,2.4140625 0.8554688,0 1.5351563,-1.078125 1.5351563,-2.4023438 0,-0.3515625 -0.035156,-0.7851562 -0.2695313,-1.3828125 0.7734375,0.4453125 1.453125,0.515625 1.7929688,0.515625 0.328125,0 0.984375,-0.070312 1.6171873,-0.4570312 l 0.01172,0.011719 -5.3320313,8.09765627 c -0.070312,0.1171875 -0.09375,0.15234375 -0.09375,0.2109375 0,0.12890625 0.1054687,0.22265625 0.2226562,0.22265625 0.1054688,0 0.1640625,-0.0820313 0.2226563,-0.1640625 z M 5.6183267,-4.382587 c -0.1640625,0 -1.0429688,-0.082031 -1.0429688,-2.1679688 0,-2.0976562 0.8671875,-2.1796875 1.0429688,-2.1796875 0.65625,0 1.2539062,0.9375 1.2539062,2.1679688 0,1.265625 -0.609375,2.1796875 -1.2539062,2.1796875 z m 9.2167973,-4.5820313 h -1.605469 v 0.4453125 h 1.160156 v 11.0625 h -1.160156 v 0.4453125 h 1.605469 z m 0,0"
       style="fill:#000000;fill-opacity:1;fill-rule:nonzero;stroke:none"
       aria-label="[%]"
       transform="matrix(0,-1.3333333,1.3333333,0,26.355168,214.72548)" />
    <path
       id="path61"
       d="M 431.71314,321.38939 248.84454,190.66547 65.975936,53.177218"
       style="fill:none;stroke:#000000;stroke-width:1.5;stroke-linecap:square;stroke-linejoin:round;stroke-miterlimit:10;stroke-dasharray:none;stroke-opacity:1"
       transform="matrix(1.3333333,0,0,-1.3333333,0,460.8)"
       clip-path="url(#clipPath62)" />
    <g
       id="g64"
       clip-path="url(#clipPath65)">
      <path
         d="m 0,-3 c 0.795609,0 1.55874,0.316099 2.12132,0.87868 C 2.683901,-1.55874 3,-0.795609 3,0 3,0.795609 2.683901,1.55874 2.12132,2.12132 1.55874,2.683901 0.795609,3 0,3 -0.795609,3 -1.55874,2.683901 -2.12132,2.12132 -2.683901,1.55874 -3,0.795609 -3,0 -3,-0.795609 -2.683901,-1.55874 -2.12132,-2.12132 -1.55874,-2.683901 -0.795609,-3 0,-3 Z"
         style="fill:#000000;fill-opacity:1;fill-rule:nonzero;stroke:#000000;stroke-width:1;stroke-linecap:butt;stroke-linejoin:round;stroke-miterlimit:10;stroke-dasharray:none;stroke-opacity:1"
         transform="matrix(1.3333333,0,0,-1.3333333,575.61752,32.280812)"
         clip-path="url(#clipPath63)"
         id="path64" />
    </g>
    <g
       id="g67"
       clip-path="url(#clipPath68)">
      <path
         d="m 0,-3 c 0.795609,0 1.55874,0.316099 2.12132,0.87868 C 2.683901,-1.55874 3,-0.795609 3,0 3,0.795609 2.683901,1.55874 2.12132,2.12132 1.55874,2.683901 0.795609,3 0,3 -0.795609,3 -1.55874,2.683901 -2.12132,2.12132 -2.683901,1.55874 -3,0.795609 -3,0 -3,-0.795609 -2.683901,-1.55874 -2.12132,-2.12132 -1.55874,-2.683901 -0.795609,-3 0,-3 Z"
         style="fill:#000000;fill-opacity:1;fill-rule:nonzero;stroke:#000000;stroke-width:1;stroke-linecap:butt;stroke-linejoin:round;stroke-miterlimit:10;stroke-dasharray:none;stroke-opacity:1"
         transform="matrix(1.3333333,0,0,-1.3333333,331.79272,206.57937)"
         clip-path="url(#clipPath66)"
         id="path67" />
    </g>
    <g
       id="g70"
       clip-path="url(#clipPath71)">
      <path
         d="m 0,-3 c 0.795609,0 1.55874,0.316099 2.12132,0.87868 C 2.683901,-1.55874 3,-0.795609 3,0 3,0.795609 2.683901,1.55874 2.12132,2.12132 1.55874,2.683901 0.795609,3 0,3 -0.795609,3 -1.55874,2.683901 -2.12132,2.12132 -2.683901,1.55874 -3,0.795609 -3,0 -3,-0.795609 -2.683901,-1.55874 -2.12132,-2.12132 -1.55874,-2.683901 -0.795609,-3 0,-3 Z"
         style="fill:#000000;fill-opacity:1;fill-rule:nonzero;stroke:#000000;stroke-width:1;stroke-linecap:butt;stroke-linejoin:round;stroke-miterlimit:10;stroke-dasharray:none;stroke-opacity:1"
         transform="matrix(1.3333333,0,0,-1.3333333,87.967915,389.89704)"
         clip-path="url(#clipPath69)"
         id="path70" />
    </g>
    <path
       id="path72"
       d="m 248.84454,107.96864 h 182.8686 V 261.40011 L 248.84454,107.96864"
       style="fill:none;stroke:#000000;stroke-width:1.5;stroke-linecap:square;stroke-linejoin:round;stroke-miterlimit:10;stroke-dasharray:none;stroke-opacity:1"
       transform="matrix(1.3333333,0,0,-1.3333333,0,460.8)"
       clip-path="url(#clipPath73)" />
    <path
       id="path74"
       d="M 47.689076,39.766609 V 334.8"
       style="fill:none;stroke:#000000;stroke-width:0.8;stroke-linecap:square;stroke-linejoin:miter;stroke-miterlimit:10;stroke-dasharray:none;stroke-opacity:1"
       transform="matrix(1.3333333,0,0,-1.3333333,0,460.8)" />
    <path
       id="path75"
       d="M 450,39.766609 V 334.8"
       style="fill:none;stroke:#000000;stroke-width:0.8;stroke-linecap:square;stroke-linejoin:miter;stroke-miterlimit:10;stroke-dasharray:none;stroke-opacity:1"
       transform="matrix(1.3333333,0,0,-1.3333333,0,460.8)" />
    <path
       id="path76"
       d="M 47.689076,39.766609 H 450"
       style="fill:none;stroke:#000000;stroke-width:0.8;stroke-linecap:square;stroke-linejoin:miter;stroke-miterlimit:10;stroke-dasharray:none;stroke-opacity:1"
       transform="matrix(1.3333333,0,0,-1.3333333,0,460.8)" />
    <path
       id="path77"
       d="M 47.689076,334.8 H 450"
       style="fill:none;stroke:#000000;stroke-width:0.8;stroke-linecap:square;stroke-linejoin:miter;stroke-miterlimit:10;stroke-dasharray:none;stroke-opacity:1"
       transform="matrix(1.3333333,0,0,-1.3333333,0,460.8)" />
    <g
       id="g77"
       aria-label="O(h&#10;2&#10;)"
       transform="matrix(1.3333333,0,0,1.3333333,497.12347,254.08579)">
      <path
         id="path78"
         d="m 8.6847445,-5.2381701 c 0,-1.96875 -1.3007813,-3.1757813 -2.9648438,-3.1757813 -2.5664062,0 -5.14453122,2.7539063 -5.14453122,5.5078125 0,1.875 1.24218752,3.15234378 2.97656252,3.15234378 2.5078125,0 5.1328125,-2.61328128 5.1328125,-5.48437498 z m -5.0625,5.21484373 c -0.984375,0 -2.015625,-0.71484375 -2.015625,-2.57812503 0,-1.0898437 0.3867187,-2.8710937 1.3710937,-4.0664062 0.8671875,-1.0546875 1.875,-1.4882813 2.671875,-1.4882813 1.0546875,0 2.0742188,0.7734375 2.0742188,2.4960938 0,1.0546875 -0.4570313,2.71875 -1.2539063,3.8554687 -0.8789062,1.21875003 -1.9570312,1.78125003 -2.8476562,1.78125003 z m 0,0"
         style="fill:#000000;fill-opacity:1;fill-rule:nonzero;stroke:none" />
      <path
         id="path79"
         d="m 13.161307,2.9063611 c 0,-0.035156 0,-0.058594 -0.210938,-0.2695312 -1.195312,-1.2070313 -1.863281,-3.17578127 -1.863281,-5.6132813 0,-2.3203125 0.5625,-4.3125 1.945313,-5.7304687 0.128906,-0.1054688 0.128906,-0.1289063 0.128906,-0.1640625 0,-0.070312 -0.07031,-0.09375 -0.117188,-0.09375 -0.152343,0 -1.136718,0.8554687 -1.722656,2.0273437 -0.609375,1.2070313 -0.878906,2.4960938 -0.878906,3.9609375 0,1.0664063 0.164062,2.48437503 0.785156,3.76171878 0.703125,1.44140622 1.6875,2.21484372 1.816406,2.21484372 0.04687,0 0.117188,-0.023437 0.117188,-0.09375 z m 0,0"
         style="fill:#000000;fill-opacity:1;fill-rule:nonzero;stroke:none" />
      <path
         id="path80"
         d="m 17.186698,-7.9920764 c 0.01172,-0.046875 0.03516,-0.1289062 0.03516,-0.1875 0,-0.1171875 -0.128906,-0.1171875 -0.152344,-0.1171875 -0.01172,0 -0.597656,0.046875 -0.65625,0.058594 -0.199219,0.011719 -0.375,0.035156 -0.597656,0.046875 -0.292969,0.023437 -0.375,0.035156 -0.375,0.2578125 0,0.1171875 0.09375,0.1171875 0.257812,0.1171875 0.585938,0 0.597657,0.1054687 0.597657,0.2226562 0,0.070312 -0.02344,0.1757813 -0.03516,0.2109375 l -1.734375,6.91406253 c -0.04687,0.1875 -0.04687,0.2109375 -0.04687,0.28125 0,0.2578125 0.199219,0.3046875 0.328125,0.3046875 0.199219,0 0.351563,-0.15234375 0.410157,-0.28125 L 15.75701,-2.3319201 c 0.05859,-0.2578125 0.128906,-0.515625 0.199219,-0.7734375 0.128906,-0.5039063 0.128906,-0.515625 0.351562,-0.8671875 0.234375,-0.3398438 0.761719,-1.0546875 1.6875,-1.0546875 0.480469,0 0.644532,0.3515625 0.644532,0.8320312 0,0.6679688 -0.46875,1.96875 -0.726563,2.6835938 -0.105469,0.2929687 -0.164062,0.4453125 -0.164062,0.66796873 0,0.52734375 0.363281,0.9609375 0.9375,0.9609375 1.113281,0 1.535156,-1.75781253 1.535156,-1.82812503 0,-0.058594 -0.04687,-0.1054687 -0.117188,-0.1054687 -0.117187,0 -0.128906,0.035156 -0.1875,0.234375 -0.269531,0.96093748 -0.714843,1.46484373 -1.195312,1.46484373 -0.117188,0 -0.304688,-0.0117188 -0.304688,-0.3984375 0,-0.3046875 0.140625,-0.69140623 0.1875,-0.82031253 0.210938,-0.5742187 0.75,-1.9921875 0.75,-2.6835937 0,-0.7148438 -0.410156,-1.2539063 -1.324218,-1.2539063 -0.679688,0 -1.277344,0.328125 -1.769532,0.9492188 z m 0,0"
         style="fill:#000000;fill-opacity:1;fill-rule:nonzero;stroke:none" />
      <path
         id="path81"
         d="m 22.811698,-5.9676623 c 0.128906,-0.1171875 0.457031,-0.375 0.585937,-0.4921875 0.492188,-0.4570313 0.960938,-0.890625 0.960938,-1.6171875 0,-0.9492188 -0.796875,-1.5585938 -1.792969,-1.5585938 -0.949219,0 -1.582031,0.7265625 -1.582031,1.4296875 0,0.3984375 0.316406,0.4453125 0.421875,0.4453125 0.164062,0 0.410156,-0.1171875 0.410156,-0.421875 0,-0.4101562 -0.398438,-0.4101562 -0.492188,-0.4101562 0.234375,-0.5859375 0.773438,-0.7851563 1.160157,-0.7851563 0.738281,0 1.125,0.6328125 1.125,1.3007813 0,0.8320312 -0.585938,1.4296875 -1.523438,2.4023437 l -1.007812,1.03125 c -0.09375,0.09375 -0.09375,0.1054688 -0.09375,0.3046875 h 3.152343 l 0.222657,-1.4296875 h -0.246094 c -0.02344,0.1640625 -0.08203,0.5625 -0.175781,0.7148438 -0.04687,0.058594 -0.65625,0.058594 -0.785157,0.058594 h -1.417968 z m 0,0"
         style="fill:#000000;fill-opacity:1;fill-rule:nonzero;stroke:none" />
      <path
         id="path82"
         d="m 28.668143,-2.9764514 c 0,-0.9140625 -0.128906,-2.390625 -0.796875,-3.7734375 -0.703125,-1.4414062 -1.675781,-2.2148437 -1.816406,-2.2148437 -0.04687,0 -0.105469,0.023437 -0.105469,0.09375 0,0.035156 0,0.058594 0.199219,0.2695312 1.195312,1.2070313 1.875,3.1757813 1.875,5.6132813 0,2.32031248 -0.5625,4.3125 -1.957032,5.7304687 -0.117187,0.1054688 -0.117187,0.1289063 -0.117187,0.1640625 0,0.070312 0.05859,0.09375 0.105469,0.09375 0.164062,0 1.136718,-0.8554687 1.722656,-2.02734372 0.609375,-1.21875 0.890625,-2.51953128 0.890625,-3.94921878 z m 0,0"
         style="fill:#000000;fill-opacity:1;fill-rule:nonzero;stroke:none" />
    </g>
  </g>
</svg>
